<svg width="27" height="27" viewBox="0 0 27 27" fill="none" xmlns="http://www.w3.org/2000/svg">
<rect x="0.209473" width="26.7907" height="26.7907" rx="2" fill="white"/>
<path d="M6.16284 8.34022C6.16284 7.86414 6.33046 7.47137 6.66567 7.16193C7.00088 6.85247 7.43668 6.69775 7.97302 6.69775C8.4998 6.69775 8.926 6.85009 9.25164 7.15479C9.58686 7.469 9.75447 7.87842 9.75447 8.38307C9.75447 8.84011 9.59166 9.22096 9.26601 9.52566C8.9308 9.83987 8.49022 9.99698 7.94429 9.99698H7.92992C7.40315 9.99698 6.97695 9.83987 6.6513 9.52566C6.32566 9.21145 6.16284 8.8163 6.16284 8.34022ZM6.34961 20.8373V11.2967H9.53897V20.8373H6.34961ZM11.3061 20.8373H14.4954V15.51C14.4954 15.1767 14.5337 14.9196 14.6104 14.7387C14.7444 14.415 14.948 14.1412 15.2209 13.9175C15.4939 13.6937 15.8363 13.5818 16.2481 13.5818C17.3208 13.5818 17.8572 14.3007 17.8572 15.7385V20.8373H21.0466V15.3671C21.0466 13.9579 20.7113 12.8892 20.0409 12.1608C19.3705 11.4324 18.4845 11.0682 17.3831 11.0682C16.1476 11.0682 15.185 11.5966 14.4954 12.6535V12.6821H14.4811L14.4954 12.6535V11.2967H11.3061C11.3252 11.6014 11.3348 12.5487 11.3348 14.1389C11.3348 15.729 11.3252 17.9618 11.3061 20.8373Z" fill="#090949"/>
</svg>
