<svg width="43" height="34" viewBox="0 0 43 34" fill="none" xmlns="http://www.w3.org/2000/svg">
<path d="M32.0023 0.0872765L2.34164 0C1.12745 0 0.130091 1.00368 0.0867272 2.22555L0 29.8922C0 30.6777 0.607091 31.3759 1.431 31.3759C1.908 31.3759 2.34163 31.1577 2.60182 30.8086L8.54263 23.3028L31.8723 23.3901C33.0864 23.3901 34.0838 22.3864 34.1272 21.1646L34.2139 2.35647C34.2139 1.1346 33.2165 0.130915 32.0023 0.0872765Z" fill="#1F64FF"/>
<path d="M40.545 9.07666H35.775L35.7316 22.0372C35.7316 23.7391 34.344 25.1355 32.6528 25.1355L15.8711 25.0919V25.2665C15.8711 26.2265 16.6516 27.012 17.6056 27.012L35.6449 27.0556L40.1981 32.9032C40.5884 33.3832 41.2822 33.4705 41.7592 33.0777C42.0194 32.8595 42.1928 32.5541 42.1928 32.2049L42.2795 10.7786C42.2362 9.86215 41.4556 9.07666 40.545 9.07666Z" fill="#1F64FF"/>
<path d="M21.0314 13.3096L23.8067 11.0404C24.0235 10.8222 24.0668 10.4731 23.85 10.2549C23.7633 10.124 23.6332 10.0803 23.4597 10.0803L19.9039 9.86215C19.6871 9.86215 19.5137 9.73123 19.4269 9.51304L18.126 6.15289C17.9959 5.84743 17.6924 5.71651 17.3888 5.84742C17.2588 5.89106 17.1287 6.02198 17.0853 6.15289L15.7844 9.51304C15.6977 9.73123 15.5242 9.86215 15.3074 9.86215L11.7082 10.0367C11.4047 10.0367 11.1445 10.2985 11.1879 10.604C11.1879 10.7785 11.2746 10.9095 11.4047 10.9967L14.1799 13.2659C14.3534 13.3968 14.3968 13.615 14.3534 13.8332L13.4428 17.3243C13.356 17.6298 13.5728 17.9352 13.8764 17.9789C14.0065 18.0225 14.1799 17.9789 14.31 17.8916L17.3021 15.9715C17.4756 15.8406 17.6924 15.8406 17.9092 15.9715L20.9013 17.9352C21.1615 18.1098 21.5084 18.0225 21.6818 17.7607C21.7686 17.6298 21.7686 17.4988 21.7686 17.3243L20.9013 13.8332C20.8146 13.615 20.8579 13.4405 21.0314 13.3096Z" fill="white"/>
</svg>
