<svg width="27" height="28" viewBox="0 0 27 28" fill="none" xmlns="http://www.w3.org/2000/svg">
<rect y="0.743652" width="26.7907" height="26.7907" rx="2" fill="white"/>
<path d="M20.7852 9.63347C20.3179 9.84387 19.784 9.97335 19.2833 10.0543C19.5337 10.0219 19.8841 9.58492 20.0343 9.42308C20.2512 9.16413 20.4347 8.85663 20.5349 8.53294C20.5516 8.50057 20.5516 8.4682 20.5349 8.45202C20.5015 8.43583 20.4848 8.45202 20.4514 8.45202C19.8841 8.74334 19.3 8.96992 18.6659 9.11558C18.6159 9.13176 18.5825 9.11558 18.5491 9.08321C18.4991 9.01847 18.449 8.96992 18.3989 8.92136C18.132 8.71097 17.8483 8.53294 17.5312 8.40346C17.114 8.24162 16.6468 8.1607 16.1963 8.19307C15.7624 8.22544 15.3286 8.33873 14.9448 8.53294C14.561 8.72715 14.2105 9.00229 13.9268 9.34216C13.6432 9.68203 13.4262 10.0866 13.3261 10.5236C13.226 10.9444 13.226 11.349 13.2927 11.7698C13.3094 11.8345 13.2927 11.8507 13.226 11.8345C10.7563 11.4947 8.72053 10.6531 7.06853 8.82426C7.00178 8.74334 6.95172 8.74334 6.90166 8.82426C6.18412 9.87624 6.53455 11.5594 7.43564 12.401C7.55245 12.5143 7.68595 12.6276 7.81944 12.7247C7.76938 12.7409 7.16865 12.6761 6.63467 12.401C6.56792 12.3524 6.53455 12.3848 6.51786 12.4657C6.51786 12.579 6.51786 12.6761 6.53455 12.8056C6.66804 13.8738 7.43564 14.861 8.47023 15.2333C8.58704 15.2818 8.73722 15.3304 8.87072 15.3465C8.6371 15.3951 8.3868 15.4275 7.70263 15.3789C7.6192 15.3627 7.58582 15.4113 7.6192 15.476C8.1198 16.8355 9.22114 17.2401 10.0555 17.4667C10.1723 17.4829 10.2724 17.4829 10.3892 17.5152C10.3892 17.5314 10.3725 17.5314 10.3725 17.5314C10.1055 17.936 9.15439 18.2435 8.70385 18.3892C7.90287 18.6643 7.01847 18.7776 6.16744 18.6967C6.03394 18.6805 6.00057 18.6805 5.96719 18.6967C5.93382 18.7129 5.96719 18.7453 6.00057 18.7776C6.16744 18.8909 6.35099 18.988 6.53455 19.0851C7.06853 19.3603 7.63588 19.5868 8.21993 19.7487C11.2569 20.5579 14.6944 19.9591 16.9806 17.758C18.7661 16.0425 19.4002 13.6634 19.4002 11.2681C19.4002 11.171 19.517 11.1224 19.5837 11.0739C20.0509 10.734 20.4181 10.3294 20.7685 9.87624C20.8519 9.77913 20.8352 9.68203 20.8352 9.64966V9.63347C20.8352 9.60111 20.8519 9.60111 20.7852 9.63347Z" fill="#090949"/>
</svg>
